<?xml version="1.0" encoding="UTF-8" standalone="no"?>
<!-- Created with Inkscape (http://www.inkscape.org/) -->

<svg
   xmlns:dc="http://purl.org/dc/elements/1.1/"
   xmlns:cc="http://creativecommons.org/ns#"
   xmlns:rdf="http://www.w3.org/1999/02/22-rdf-syntax-ns#"
   xmlns:svg="http://www.w3.org/2000/svg"
   xmlns="http://www.w3.org/2000/svg"
   xmlns:sodipodi="http://sodipodi.sourceforge.net/DTD/sodipodi-0.dtd"
   xmlns:inkscape="http://www.inkscape.org/namespaces/inkscape"
   width="177.41586"
   height="171.21481"
   id="svg2"
   version="1.1"
   inkscape:version="0.48.2 r9819"
   sodipodi:docname="cfd.svg">
  <defs
     id="defs4">
    <marker
       inkscape:stockid="Arrow1Lend"
       orient="auto"
       refY="0"
       refX="0"
       id="Arrow1Lend"
       style="overflow:visible">
      <path
         id="path3864"
         d="M 0,0 5,-5 -12.5,0 5,5 0,0 z"
         style="fill-rule:evenodd;stroke:#000000;stroke-width:1pt;marker-start:none"
         transform="matrix(-0.8,0,0,-0.8,-10,0)"
         inkscape:connector-curvature="0" />
    </marker>
    <marker
       inkscape:stockid="Arrow1Lend"
       orient="auto"
       refY="0"
       refX="0"
       id="Arrow1Lend-1"
       style="overflow:visible">
      <path
         inkscape:connector-curvature="0"
         id="path3864-7"
         d="M 0,0 5,-5 -12.5,0 5,5 0,0 z"
         style="fill-rule:evenodd;stroke:#000000;stroke-width:1pt;marker-start:none"
         transform="matrix(-0.8,0,0,-0.8,-10,0)" />
    </marker>
    <marker
       inkscape:stockid="Arrow1Lend"
       orient="auto"
       refY="0"
       refX="0"
       id="Arrow1Lend-15"
       style="overflow:visible">
      <path
         inkscape:connector-curvature="0"
         id="path3864-2"
         d="M 0,0 5,-5 -12.5,0 5,5 0,0 z"
         style="fill-rule:evenodd;stroke:#000000;stroke-width:1pt;marker-start:none"
         transform="matrix(-0.8,0,0,-0.8,-10,0)" />
    </marker>
    <marker
       inkscape:stockid="Arrow1Lend"
       orient="auto"
       refY="0"
       refX="0"
       id="Arrow1Lend-6"
       style="overflow:visible">
      <path
         inkscape:connector-curvature="0"
         id="path3864-1"
         d="M 0,0 5,-5 -12.5,0 5,5 0,0 z"
         style="fill-rule:evenodd;stroke:#000000;stroke-width:1pt;marker-start:none"
         transform="matrix(-0.8,0,0,-0.8,-10,0)" />
    </marker>
  </defs>
  <sodipodi:namedview
     id="base"
     pagecolor="#ffffff"
     bordercolor="#666666"
     borderopacity="1.0"
     inkscape:pageopacity="0.0"
     inkscape:pageshadow="2"
     inkscape:zoom="3"
     inkscape:cx="34.950068"
     inkscape:cy="18.032963"
     inkscape:document-units="px"
     inkscape:current-layer="layer1"
     showgrid="false"
     fit-margin-top="10"
     fit-margin-left="10"
     fit-margin-right="10"
     fit-margin-bottom="10"
     inkscape:window-width="1280"
     inkscape:window-height="738"
     inkscape:window-x="-8"
     inkscape:window-y="-8"
     inkscape:window-maximized="1" />
  <metadata
     id="metadata7">
    <rdf:RDF>
      <cc:Work
         rdf:about="">
        <dc:format>image/svg+xml</dc:format>
        <dc:type
           rdf:resource="http://purl.org/dc/dcmitype/StillImage" />
        <dc:title />
      </cc:Work>
    </rdf:RDF>
  </metadata>
  <g
     inkscape:label="Layer 1"
     inkscape:groupmode="layer"
     id="layer1"
     transform="translate(-184.04255,-163.51281)">
    <rect
       style="fill:none;stroke:#000000;stroke-width:3;stroke-linecap:butt;stroke-linejoin:miter;stroke-miterlimit:4;stroke-opacity:1;stroke-dasharray:none"
       id="rect2985"
       width="99.465546"
       height="92.033852"
       x="221.08005"
       y="206.69611" />
    <g
       style="font-size:40px;font-style:normal;font-weight:normal;line-height:125%;letter-spacing:0px;word-spacing:0px;fill:#000000;fill-opacity:1;stroke:none;font-family:Sans"
       id="text3755">
      <path
         d="m 264.47067,260.34894 2.99805,-14.34571 1.63086,0 -0.30274,1.44532 c 0.60547,-0.6315 1.14746,-1.06933 1.62598,-1.31348 0.47851,-0.24413 0.98469,-0.3662 1.51856,-0.36621 0.98957,1e-5 1.80988,0.35971 2.46093,1.0791 0.65103,0.71941 0.97656,1.74968 0.97657,3.09082 -10e-6,1.08074 -0.17905,2.06544 -0.53711,2.9541 -0.35809,0.88868 -0.79754,1.6032 -1.31836,2.14356 -0.52084,0.54036 -1.04819,0.9375 -1.58203,1.1914 -0.53387,0.25391 -1.08074,0.38086 -1.64063,0.38086 -1.24349,0 -2.20703,-0.63151 -2.89062,-1.89453 l -1.17188,5.63477 z m 3.4961,-8.21289 c -10e-6,0.77474 0.0553,1.31185 0.16601,1.61133 0.16276,0.42317 0.42969,0.76497 0.80078,1.02539 0.37109,0.26041 0.80078,0.39062 1.28907,0.39062 1.01561,0 1.83593,-0.57129 2.46093,-1.71387 0.62499,-1.14257 0.93749,-2.30956 0.9375,-3.50097 -10e-6,-0.8789 -0.20997,-1.55761 -0.62988,-2.03614 -0.41993,-0.4785 -0.94239,-0.71776 -1.56738,-0.71777 -0.44923,1e-5 -0.86589,0.11883 -1.25,0.35645 -0.38412,0.23764 -0.74057,0.59245 -1.06934,1.06445 -0.32878,0.47201 -0.60059,1.04981 -0.81543,1.7334 -0.21485,0.6836 -0.32227,1.2793 -0.32226,1.78711 z"
         style="font-size:20px;font-style:oblique;-inkscape-font-specification:Sans Oblique"
         id="path3044" />
    </g>
    <g
       transform="translate(49.667551,41.171785)"
       style="font-size:20px;font-style:oblique;font-weight:normal;line-height:125%;letter-spacing:0px;word-spacing:0px;fill:#000000;fill-opacity:1;stroke:none;font-family:Sans;-inkscape-font-specification:Sans Oblique"
       id="flowRoot3759">
      <path
         d="m 150.86914,225.52158 c -1.2435,1.40625 -2.51628,2.10938 -3.81836,2.10938 -0.80078,0 -1.44694,-0.22949 -1.93848,-0.68848 -0.49153,-0.45898 -0.7373,-1.02051 -0.7373,-1.68457 0,-0.43619 0.11068,-1.18489 0.33203,-2.24609 l 1.25,-5.98633 1.76758,0 -1.38672,6.63086 c -0.11719,0.55339 -0.17578,0.98307 -0.17578,1.28906 0,0.39063 0.11881,0.69499 0.35644,0.91309 0.23763,0.2181 0.58757,0.32715 1.04981,0.32715 0.49479,0 0.97818,-0.12045 1.45019,-0.36133 0.472,-0.24089 0.8789,-0.56641 1.22071,-0.97657 0.34179,-0.41015 0.62011,-0.89517 0.83496,-1.45507 0.14322,-0.35807 0.30924,-0.98633 0.49805,-1.88477 l 0.9375,-4.48242 1.76757,0 -2.16797,10.37109 -1.63085,0 z"
         style=""
         id="path3035" />
    </g>
    <g
       style="font-size:20px;font-style:oblique;font-weight:normal;line-height:125%;letter-spacing:0px;word-spacing:0px;fill:#000000;fill-opacity:1;stroke:none;font-family:Sans;-inkscape-font-specification:Sans Oblique"
       id="text3767">
      <path
         d="m 263.38239,320.41934 -1.69922,-10.37109 1.71875,0 0.88867,5.71289 c 0.0976,0.625 0.21809,1.64388 0.36133,3.05664 0.33853,-0.73568 0.77148,-1.57877 1.29882,-2.5293 l 3.4668,-6.24023 1.86524,0 -5.9375,10.37109 z"
         style=""
         id="path3050" />
    </g>
    <g
       style="font-size:10px;font-style:oblique;font-weight:normal;line-height:125%;letter-spacing:0px;word-spacing:0px;fill:#000000;fill-opacity:1;stroke:none;font-family:Sans;-inkscape-font-specification:Sans Oblique"
       id="text3771">
      <path
         d="m 203.29933,272.32428 c 0,-0.60547 0.0903,-1.2207 0.271,-1.8457 0.18066,-0.625 0.38167,-1.12467 0.60303,-1.49903 0.22135,-0.37434 0.45084,-0.66731 0.68847,-0.8789 0.23763,-0.21158 0.47119,-0.36702 0.70069,-0.46631 0.22948,-0.0993 0.4842,-0.14892 0.76416,-0.14893 0.54687,10e-6 1.00341,0.20346 1.36962,0.61035 0.36621,0.40691 0.54932,0.99448 0.54932,1.7627 0,0.79102 -0.12696,1.5739 -0.38086,2.34863 -0.29948,0.91797 -0.71615,1.60645 -1.25,2.06543 -0.41016,0.34831 -0.87728,0.52246 -1.40137,0.52246 -0.53711,0 -0.99039,-0.21077 -1.35986,-0.63232 -0.36947,-0.42155 -0.5542,-1.03434 -0.5542,-1.83838 z m 0.85449,0.22461 c 0,0.43945 0.0732,0.78288 0.21973,1.03027 0.19857,0.3418 0.49316,0.5127 0.88379,0.5127 0.34179,0 0.65267,-0.15462 0.93262,-0.46387 0.40364,-0.4362 0.70719,-1.07503 0.91064,-1.9165 0.20345,-0.84147 0.30517,-1.52913 0.30518,-2.06299 -1e-5,-0.51432 -0.0985,-0.88541 -0.29541,-1.11328 -0.19695,-0.22786 -0.45655,-0.34179 -0.77881,-0.3418 -0.23438,10e-6 -0.45329,0.0602 -0.65674,0.18066 -0.20345,0.12045 -0.39795,0.32716 -0.5835,0.62012 -0.26367,0.41342 -0.49316,1.03191 -0.68847,1.85547 -0.16602,0.70313 -0.24903,1.26953 -0.24903,1.69922 z"
         style=""
         id="path3032" />
    </g>
    <g
       style="font-size:10px;font-style:oblique;font-weight:normal;line-height:125%;letter-spacing:0px;word-spacing:0px;fill:#000000;fill-opacity:1;stroke:none;font-family:Sans;-inkscape-font-specification:Sans Oblique"
       id="text3771-1">
      <path
         d="m 270.04486,322.25693 c 0,-0.60547 0.0903,-1.2207 0.271,-1.84571 0.18066,-0.62499 0.38167,-1.12466 0.60302,-1.49902 0.22136,-0.37434 0.45085,-0.66731 0.68848,-0.87891 0.23763,-0.21158 0.47119,-0.36701 0.70068,-0.4663 0.22949,-0.0993 0.48421,-0.14892 0.76416,-0.14893 0.54688,10e-6 1.00342,0.20346 1.36963,0.61035 0.36621,0.40691 0.54931,0.99447 0.54932,1.7627 -1e-5,0.79102 -0.12696,1.57389 -0.38086,2.34863 -0.29948,0.91797 -0.71615,1.60645 -1.25,2.06543 -0.41016,0.34831 -0.87728,0.52246 -1.40137,0.52246 -0.53711,0 -0.9904,-0.21077 -1.35986,-0.63232 -0.36947,-0.42155 -0.5542,-1.03434 -0.5542,-1.83838 z m 0.85449,0.22461 c 0,0.43945 0.0732,0.78288 0.21973,1.03027 0.19857,0.3418 0.49316,0.5127 0.88379,0.5127 0.34179,0 0.65266,-0.15463 0.93262,-0.46387 0.40364,-0.4362 0.70719,-1.07503 0.91064,-1.91651 0.20345,-0.84146 0.30517,-1.52913 0.30518,-2.06298 -1e-5,-0.51432 -0.0985,-0.88541 -0.29541,-1.11329 -0.19695,-0.22785 -0.45655,-0.34179 -0.77881,-0.34179 -0.23438,0 -0.45329,0.0602 -0.65674,0.18066 -0.20345,0.12045 -0.39795,0.32716 -0.5835,0.62012 -0.26367,0.41342 -0.49316,1.03191 -0.68847,1.85547 -0.16602,0.70313 -0.24903,1.26953 -0.24903,1.69922 z"
         style=""
         id="path3047" />
    </g>
    <g
       transform="translate(187.04704,40.852792)"
       style="font-size:20px;font-style:oblique;font-weight:normal;line-height:125%;letter-spacing:0px;word-spacing:0px;fill:#000000;fill-opacity:1;stroke:none;font-family:Sans;-inkscape-font-specification:Sans Oblique"
       id="flowRoot3759-4">
      <path
         d="m 150.86914,225.52158 c -1.2435,1.40625 -2.51628,2.10938 -3.81836,2.10938 -0.80078,0 -1.44694,-0.22949 -1.93848,-0.68848 -0.49153,-0.45898 -0.7373,-1.02051 -0.7373,-1.68457 0,-0.43619 0.11068,-1.18489 0.33203,-2.24609 l 1.25,-5.98633 1.76758,0 -1.38672,6.63086 c -0.11719,0.55339 -0.17578,0.98307 -0.17578,1.28906 0,0.39063 0.11881,0.69499 0.35644,0.91309 0.23763,0.2181 0.58757,0.32715 1.04981,0.32715 0.49479,0 0.97818,-0.12045 1.45019,-0.36133 0.472,-0.24089 0.8789,-0.56641 1.22071,-0.97657 0.34179,-0.41015 0.62011,-0.89517 0.83496,-1.45507 0.14322,-0.35807 0.30924,-0.98633 0.49805,-1.88477 l 0.9375,-4.48242 1.76757,0 -2.16797,10.37109 -1.63085,0 z"
         style=""
         id="path3041" />
    </g>
    <g
       style="font-size:10px;font-style:oblique;font-weight:normal;line-height:125%;letter-spacing:0px;word-spacing:0px;fill:#000000;fill-opacity:1;stroke:none;font-family:Sans;-inkscape-font-specification:Sans Oblique"
       id="text3771-8">
      <path
         d="m 342.37802,274.35391 1.13281,-5.40527 c -0.48828,0.38412 -1.17513,0.69174 -2.06054,0.92285 l 0.16601,-0.80078 c 0.43945,-0.17578 0.87321,-0.40527 1.30127,-0.68848 0.42806,-0.28319 0.74951,-0.53059 0.96436,-0.74218 0.1302,-0.13021 0.2539,-0.28808 0.37109,-0.47364 l 0.5127,0 -1.49903,7.1875 z"
         style=""
         id="path3038" />
    </g>
    <g
       style="font-size:20px;font-style:oblique;font-weight:normal;line-height:125%;letter-spacing:0px;word-spacing:0px;fill:#000000;fill-opacity:1;stroke:none;font-family:Sans;-inkscape-font-specification:Sans Oblique"
       id="text3767-2">
      <path
         d="m 261.68155,193.40018 -1.69922,-10.3711 1.71875,0 0.88867,5.71289 c 0.0977,0.62501 0.2181,1.64389 0.36133,3.05664 0.33854,-0.73567 0.77148,-1.57877 1.29883,-2.52929 l 3.4668,-6.24024 1.86523,0 -5.9375,10.3711 z"
         style=""
         id="path3029" />
    </g>
    <g
       style="font-size:10px;font-style:oblique;font-weight:normal;line-height:125%;letter-spacing:0px;word-spacing:0px;fill:#000000;fill-opacity:1;stroke:none;font-family:Sans;-inkscape-font-specification:Sans Oblique"
       id="text3771-1-5">
      <path
         d="m 270.04324,197.5864 1.13282,-5.40528 c -0.48829,0.38412 -1.17514,0.69174 -2.06055,0.92285 l 0.16601,-0.80078 c 0.43946,-0.17577 0.87321,-0.40527 1.30127,-0.68847 0.42806,-0.2832 0.74951,-0.5306 0.96436,-0.74219 0.1302,-0.1302 0.2539,-0.28808 0.37109,-0.47363 l 0.5127,0 -1.49902,7.1875 z"
         style=""
         id="path3026" />
    </g>
    <path
       style="fill:none;stroke:#000000;stroke-width:1px;stroke-linecap:butt;stroke-linejoin:miter;stroke-opacity:1;marker-end:url(#Arrow1Lend)"
       d="m 196.05612,253.10673 c 25.74643,0 45.74643,0 45.74643,0"
       id="path3856"
       inkscape:connector-curvature="0"
       sodipodi:nodetypes="cc" />
    <path
       style="fill:none;stroke:#000000;stroke-width:1px;stroke-linecap:butt;stroke-linejoin:miter;stroke-opacity:1;marker-end:url(#Arrow1Lend)"
       d="m 303.88699,251.79969 c 30.74643,0 45.74643,0 45.74643,0"
       id="path3856-1"
       inkscape:connector-curvature="0"
       sodipodi:nodetypes="cc" />
    <path
       style="fill:none;stroke:#000000;stroke-width:1px;stroke-linecap:butt;stroke-linejoin:miter;stroke-opacity:1;marker-end:url(#Arrow1Lend)"
       d="m 280.36024,221.08423 c 0.33333,-21.74642 0,-45.74642 0,-45.74642"
       id="path3856-7"
       inkscape:connector-curvature="0"
       sodipodi:nodetypes="cc" />
    <path
       style="fill:none;stroke:#000000;stroke-width:1px;stroke-linecap:butt;stroke-linejoin:miter;stroke-opacity:1;marker-end:url(#Arrow1Lend)"
       d="m 281.01378,324.34045 c -0.33333,-28.41309 0,-45.74642 0,-45.74642"
       id="path3856-7-4"
       inkscape:connector-curvature="0"
       sodipodi:nodetypes="cc" />
  </g>
</svg>
